<svg width="350" height="358" viewBox="0 0 350 358" fill="none" xmlns="http://www.w3.org/2000/svg">
<g filter="url(#filter0_d)">
<path d="M144.375 349.027C138.542 349.027 134.167 344.166 134.167 338.819V325.207C134.167 319.374 139.028 314.999 144.375 314.999C150.208 314.999 154.583 319.86 154.583 325.207V338.819C154.583 344.166 149.722 349.027 144.375 349.027Z" fill="#CECECE"/>
<path d="M170.625 349.027C164.792 349.027 160.417 344.166 160.417 338.819V325.207C160.417 319.374 165.278 314.999 170.625 314.999C175.972 314.999 180.833 319.86 180.833 325.207V338.819C181.319 344.166 176.458 349.027 170.625 349.027Z" fill="#CECECE"/>
<path d="M197.361 349.027C191.528 349.027 187.153 344.166 187.153 338.819V325.207C187.153 319.374 192.014 314.999 197.361 314.999C202.708 314.999 207.569 319.86 207.569 325.207V338.819C207.569 344.166 202.708 349.027 197.361 349.027Z" fill="#CECECE"/>
<path d="M223.611 349.027C217.778 349.027 213.403 344.166 213.403 338.819V325.207C213.403 319.374 218.264 314.999 223.611 314.999C228.958 314.999 233.819 319.86 233.819 325.207V338.819C234.306 344.166 229.444 349.027 223.611 349.027Z" fill="#CECECE"/>
<path d="M318.403 204.653L325.694 144.375C325.694 64.6528 261.042 0 181.319 0C101.597 0 36.9444 64.6528 36.9444 144.375L43.75 204.653C38.4028 213.403 35.4861 224.097 35.4861 235.278C35.9722 268.819 63.1944 296.528 97.2222 296.528C103.056 296.528 108.403 295.556 113.75 294.097V304.792C113.75 316.458 122.986 325.694 134.653 325.694H230.903C242.569 325.694 251.806 316.458 251.806 304.792V294.583C256.181 295.556 260.556 296.042 265.417 296.042C299.444 296.042 326.667 268.333 326.667 234.792C326.667 224.097 323.75 213.403 318.403 204.653V204.653Z" fill="#E5E4DF"/>
<path d="M124.444 182.292C122.986 170.139 112.778 160.417 100.139 160.417C87.5 160.417 77.2917 170.139 76.3194 182.778H75.8333V216.806C75.8333 230.417 86.5278 241.111 100.139 241.111C113.75 241.111 124.444 230.417 124.444 216.806V182.292Z" fill="#2B3B47"/>
<path d="M283.403 182.292C281.944 170.139 271.736 160.417 259.097 160.417C246.458 160.417 236.25 170.139 235.278 182.778H234.792V216.806C234.792 230.417 245.486 241.111 259.097 241.111C272.708 241.111 283.403 230.417 283.403 216.806V182.292Z" fill="#2B3B47"/>
<path d="M182.292 238.195H182.778C183.264 238.195 183.75 238.195 184.722 238.681C186.181 239.167 188.125 239.653 189.583 240.625C193.472 242.57 196.875 245.973 198.819 250.348C200.764 254.237 201.736 259.098 201.25 263.473C200.764 265.417 200.278 267.362 199.792 268.82C199.792 269.306 199.306 270.278 199.306 270.278C199.306 270.764 198.819 270.764 198.819 270.764C197.847 272.709 195.417 274.167 193.472 273.681H192.986C192.5 273.681 192.014 273.681 191.042 273.195C189.583 272.709 187.639 272.223 185.694 271.25C181.806 269.306 178.403 265.903 176.458 261.528C175 257.639 174.028 252.778 175 248.889C175.486 246.945 175.972 245 176.458 243.542C176.458 243.056 176.944 242.084 176.944 242.084C176.944 241.598 177.431 241.598 177.431 241.598C177.917 239.167 180.347 237.709 182.292 238.195Z" fill="#2B3B47"/>
<path d="M185.208 241.11L185.694 241.597C185.694 242.083 186.181 242.569 186.181 243.055C186.667 244.513 187.153 246.458 187.639 248.402C188.125 252.777 187.639 257.638 185.208 261.527C183.264 265.902 179.375 269.305 175.972 271.249C174.028 272.222 172.083 272.708 170.625 273.194C170.139 273.194 169.167 273.68 168.681 273.68H168.194C165.764 274.166 163.819 273.194 162.847 270.763L162.361 270.277C162.361 269.791 161.875 269.305 161.875 268.819C161.389 267.361 160.903 265.416 160.417 263.472C159.931 259.097 160.417 254.236 162.847 250.347C164.792 246.458 168.681 242.569 172.083 240.624C174.028 239.652 175.972 238.68 176.944 238.68C177.431 238.68 178.403 238.194 178.889 238.194H179.375C182.292 237.708 184.236 239.166 185.208 241.11Z" fill="#2B3B47"/>
</g>
<defs>
<filter id="filter0_d" x="-4" y="0" width="358" height="358" filterUnits="userSpaceOnUse" color-interpolation-filters="sRGB">
<feFlood flood-opacity="0" result="BackgroundImageFix"/>
<feColorMatrix in="SourceAlpha" type="matrix" values="0 0 0 0 0 0 0 0 0 0 0 0 0 0 0 0 0 0 127 0"/>
<feOffset dy="4"/>
<feGaussianBlur stdDeviation="2"/>
<feColorMatrix type="matrix" values="0 0 0 0 0 0 0 0 0 0 0 0 0 0 0 0 0 0 0.25 0"/>
<feBlend mode="normal" in2="BackgroundImageFix" result="effect1_dropShadow"/>
<feBlend mode="normal" in="SourceGraphic" in2="effect1_dropShadow" result="shape"/>
</filter>
</defs>
</svg>
