<svg version="1.1" id="Layer_1" xmlns:x="&ns_extend;" xmlns:i="&ns_ai;" xmlns:graph="&ns_graphs;"
	 xmlns="http://www.w3.org/2000/svg" xmlns:xlink="http://www.w3.org/1999/xlink" x="0px" y="0px" viewBox="0 0 600 600"
	 style="enable-background:new 0 0 600 600;" xml:space="preserve">
<style type="text/css">
	.st0{fill:#A8B3C1;}
	.st1{fill:#7988A2;}
	.st2{fill:#FFFFFF;}
	.st3{fill:#435D7B;}
	.st4{fill:#0D0E1F;}
</style>
<switch>
	<g i:extraneous="self">
		<g>
			<path class="st0" d="M508.9,346.7v-39.6c0-90.1-60.6-165.9-142.9-188.2c-5.7-0.5-11.6-0.9-17.4-0.9h-94.2
				c-22.4,0-43.8,4.2-63.7,11.4c-67.5,31.4-114.6,101.9-114.6,184v40.9c0,7.3,1.6,14.2,4.1,20.6c8.1,8.4,19.4,13.6,32,13.6h35.3h35
				c3.3,0,6,2.7,6,6s-2.7,6-6,6h-29v36c8.9,17.6,27,29.7,48,29.7h24.5v-55.1c0-3.3,2.7-6,6-6s6,2.7,6,6v55.1h57.6v-55.1
				c0-3.3,2.7-6,6-6s6,2.7,6,6v55.1h57.6v-55.1c0-3.3,2.7-6,6-6s6,2.7,6,6v55.1h24.4c21.1,0,39.1-12.1,48-29.7v-36.1h-28.9
				c-3.3,0-6-2.7-6-6s2.7-6,6-6h34.9h31.6C500.2,379.4,508.9,364.1,508.9,346.7z M201.3,346.6c-0.7,0.3-1.4,0.4-2,0.7
				c-2.3,3.9-7.1,8.5-18.1,10.5c-15,2.7-25.1-2.6-29.6-5.7c-1.3-0.2-2.5-0.3-3.8-0.6c-3.2-0.7-5.3-3.8-4.7-7.1
				c0.7-3.2,3.8-5.3,7.1-4.7c15.3,3.1,31.8,1.6,46.6-4.3c3.1-1.2,6.6,0.3,7.8,3.4C205.9,341.9,204.4,345.4,201.3,346.6z
				 M171.7,327.7c-33,0-59.8-26.8-59.8-59.8c0-4.6,0.5-9.1,1.6-13.5c6.3-27.2,30.2-46.2,58.1-46.2c27.9,0,51.8,19,58.2,46.3
				c1.1,4.5,1.6,8.9,1.6,13.5C231.5,300.9,204.7,327.7,171.7,327.7z M240.5,152.3h-20.5c-3.3,0-6-2.7-6-6s2.7-6,6-6h20.5
				c3.3,0,6,2.7,6,6S243.8,152.3,240.5,152.3z M332.3,329.5c0,16.9-13.8,30.7-30.7,30.7c-16.9,0-30.7-13.8-30.7-30.7v-27.8
				c0-16.9,13.8-30.7,30.7-30.7c8.1,0,15.8,3.2,21.7,8.9c5.8,6,9,13.7,9,21.8V329.5z M283.4,152.3c-3.3,0-6-2.7-6-6s2.7-6,6-6h116.6
				c3.3,0,6,2.7,6,6s-2.7,6-6,6H283.4z M371.6,268c0-4.6,0.5-9,1.6-13.5c6.2-27.2,30.1-46.3,58.1-46.3c27.9,0,51.9,19,58.2,46.3
				c1.1,4.4,1.6,8.8,1.6,13.5c0,33-26.8,59.8-59.8,59.8S371.6,300.9,371.6,268z M455.3,351.5c-1.2,0.2-2.5,0.4-3.7,0.6
				c-4.4,3.1-14.6,8.5-29.6,5.7c-10.9-2-15.8-6.6-18-10.5c-0.7-0.2-1.4-0.4-2-0.7c-3.1-1.2-4.6-4.7-3.4-7.8c1.2-3.1,4.7-4.6,7.8-3.4
				c14.7,5.8,31.3,7.3,46.6,4.3c3.2-0.7,6.4,1.4,7.1,4.7C460.6,347.7,458.5,350.8,455.3,351.5z"/>
			<path class="st1" d="M401.5,466.3h-24.4v19h24.4c26.5,0,48-21.5,48-48v-0.7C440.6,454.2,422.6,466.3,401.5,466.3z"/>
			<path class="st1" d="M153.5,436.6v0.7c0,26.5,21.5,48,48,48h24.5v-19h-24.5C180.4,466.3,162.4,454.2,153.5,436.6z"/>
			<rect x="237.9" y="466.3" class="st1" width="57.6" height="19"/>
			<rect x="307.5" y="466.3" class="st1" width="57.6" height="19"/>
			<path class="st1" d="M151.6,352.1c4.5,3.1,14.6,8.5,29.6,5.7c10.9-2,15.8-6.6,18.1-10.5c-10.6,3.9-22,6-33.2,6
				C161.2,353.3,156.4,352.8,151.6,352.1z"/>
			<path class="st1" d="M403.8,347.3c2.3,3.9,7.1,8.5,18,10.5c15,2.7,25.2-2.6,29.6-5.7c-4.8,0.8-9.7,1.2-14.6,1.2
				C425.7,353.3,414.4,351.2,403.8,347.3z"/>
			<path class="st1" d="M508.9,307.1v39.6c0,17.4-8.7,32.7-21.8,41.9h3.8c24.6,0,44.6-20,44.6-44.6v-39.1
				c0-97.1-74.6-177.1-169.5-186C448.3,141.2,508.9,217,508.9,307.1z"/>
			<path class="st2" d="M76.1,313.5c0-82.1,47.1-152.7,114.6-184C119,155.6,67.5,224.2,67.5,304.8v39.1c0,12.1,4.9,23,12.7,31
				c-2.6-6.4-4.1-13.3-4.1-20.6V313.5z"/>
			<path class="st3" d="M301.5,283c-10.3,0-18.7,8.4-18.7,18.7v27.8c0,10.3,8.4,18.7,18.7,18.7s18.7-8.4,18.7-18.7v-27.8
				c0-5-1.9-9.7-5.5-13.3C311.2,284.9,306.5,283,301.5,283z"/>
			<path class="st3" d="M125,258.6c6.5,20.3,25,34.3,46.7,34.3c21.6,0,40.2-13.9,46.7-34.1c-0.1-0.5-0.1-1-0.2-1.5c0,0,0,0,0-0.1
				c-5-21.8-24.1-37-46.5-37s-41.4,15.2-46.5,37C125.1,257.7,125.1,258.1,125,258.6z"/>
			<path class="st3" d="M384.9,257.3c-0.1,0.5-0.1,1-0.2,1.5c6.5,20,25.4,34.1,46.7,34.1s40.2-14.2,46.7-34.1
				c-0.1-0.5-0.1-1-0.2-1.5c-5-21.8-24.2-37-46.5-37C409,220.2,389.9,235.4,384.9,257.3C384.9,257.2,384.9,257.2,384.9,257.3z"/>
			<path class="st1" d="M218.2,278.4c-10.7,14.4-27.6,23.4-46.5,23.4c-18.9,0-35.8-9.1-46.5-23.4c4.8,21.3,23.8,37.3,46.5,37.3
				S213.4,299.7,218.2,278.4z"/>
			<path class="st1" d="M431.4,315.7c22.7,0,41.7-16,46.5-37.3c-10.7,14.4-27.6,23.4-46.5,23.4c-18.9,0-35.8-9.1-46.5-23.4
				C389.7,299.7,408.7,315.7,431.4,315.7z"/>
			<path class="st4" d="M348.6,106h-94.2c-109.6,0-198.8,89.2-198.8,198.8v39.1c0,31.2,25.4,56.6,56.6,56.6h29.3v36.7
				c0,33.1,26.9,60,60,60h200c33.1,0,60-26.9,60-60v-36.7h29.4c31.2,0,56.6-25.4,56.6-56.6v-39.1C547.5,195.2,458.3,106,348.6,106z
				 M455.5,388.6h-34.9c-3.3,0-6,2.7-6,6s2.7,6,6,6h28.9v36.1v0.7c0,26.5-21.5,48-48,48h-24.4v-19v-55.1c0-3.3-2.7-6-6-6s-6,2.7-6,6
				v55.1v19h-57.6v-19v-55.1c0-3.3-2.7-6-6-6s-6,2.7-6,6v55.1v19h-57.6v-19v-55.1c0-3.3-2.7-6-6-6s-6,2.7-6,6v55.1v19h-24.5
				c-26.5,0-48-21.5-48-48v-0.7v-36h29c3.3,0,6-2.7,6-6s-2.7-6-6-6h-35h-35.3c-12.5,0-23.9-5.2-32-13.6c-7.8-8-12.7-19-12.7-31
				v-39.1c0-80.6,51.4-149.3,123.1-175.4c19.9-7.3,41.3-11.4,63.7-11.4h94.2c5.9,0,11.7,0.3,17.4,0.9c94.9,8.8,169.5,88.8,169.5,186
				v39.1c0,24.6-20,44.6-44.6,44.6h-3.8H455.5z"/>
			<path class="st4" d="M171.7,208.2c-27.9,0-51.9,19-58.1,46.2c-1.1,4.5-1.6,8.9-1.6,13.5c0,33,26.8,59.8,59.8,59.8
				s59.8-26.8,59.8-59.8c0-4.6-0.5-9-1.6-13.5C223.6,227.2,199.6,208.2,171.7,208.2z M125.2,278.4c10.7,14.4,27.6,23.4,46.5,23.4
				c18.9,0,35.8-9.1,46.5-23.4c-4.8,21.3-23.8,37.3-46.5,37.3S130,299.7,125.2,278.4z M171.7,220.2c22.3,0,41.4,15.2,46.5,37
				c0,0,0,0,0,0.1c0.1,0.5,0.1,1,0.2,1.5c-6.5,20.2-25,34.1-46.7,34.1c-21.7,0-40.3-14-46.7-34.3c0.1-0.5,0.1-0.9,0.3-1.4
				C130.3,235.4,149.4,220.2,171.7,220.2z"/>
			<path class="st4" d="M491.1,268c0-4.6-0.5-9.1-1.6-13.5c-6.3-27.3-30.2-46.3-58.2-46.3c-28.1,0-52,19-58.1,46.3
				c-1.1,4.5-1.6,8.9-1.6,13.5c0,33,26.8,59.8,59.8,59.8S491.1,300.9,491.1,268z M431.4,220.2c22.3,0,41.4,15.2,46.5,37
				c0.1,0.5,0.1,1,0.2,1.5c-6.5,20-25.4,34.1-46.7,34.1s-40.2-14.2-46.7-34.1c0.1-0.5,0.1-1,0.2-1.5c0,0,0-0.1,0-0.1
				C389.9,235.4,409,220.2,431.4,220.2z M431.4,301.9c18.9,0,35.8-9.1,46.5-23.4c-4.8,21.3-23.8,37.3-46.5,37.3
				c-22.7,0-41.7-16-46.5-37.3C395.6,292.8,412.5,301.9,431.4,301.9z"/>
			<path class="st4" d="M301.5,271c-16.9,0-30.7,13.8-30.7,30.7v27.8c0,16.9,13.8,30.7,30.7,30.7c16.9,0,30.7-13.8,30.7-30.7v-27.8
				c0-8.1-3.2-15.8-9-21.8C317.4,274.1,309.7,271,301.5,271z M320.3,329.5c0,10.3-8.4,18.7-18.7,18.7s-18.7-8.4-18.7-18.7v-27.8
				c0-10.3,8.4-18.7,18.7-18.7c5,0,9.7,2,13.2,5.4c3.6,3.6,5.5,8.4,5.5,13.3V329.5z"/>
			<path class="st4" d="M196.9,335.5c-14.8,5.8-31.4,7.4-46.6,4.3c-3.3-0.7-6.4,1.4-7.1,4.7c-0.7,3.2,1.4,6.4,4.7,7.1
				c1.2,0.3,2.5,0.4,3.8,0.6c4.8,0.8,9.6,1.2,14.5,1.2c11.2,0,22.6-2.1,33.2-6c0.7-0.2,1.4-0.4,2-0.7c3.1-1.2,4.6-4.7,3.4-7.8
				C203.4,335.8,200,334.2,196.9,335.5z"/>
			<path class="st4" d="M452.9,339.7c-15.4,3.1-31.9,1.6-46.6-4.3c-3.1-1.2-6.6,0.3-7.8,3.4c-1.2,3.1,0.3,6.6,3.4,7.8
				c0.7,0.3,1.4,0.4,2,0.7c10.5,3.9,21.8,6,33.1,6c4.9,0,9.8-0.5,14.6-1.2c1.2-0.2,2.5-0.3,3.7-0.6c3.2-0.7,5.4-3.8,4.7-7.1
				C459.3,341.2,456.1,339.1,452.9,339.7z"/>
			<path class="st4" d="M240.5,140.3h-20.5c-3.3,0-6,2.7-6,6s2.7,6,6,6h20.5c3.3,0,6-2.7,6-6S243.8,140.3,240.5,140.3z"/>
			<path class="st4" d="M406.1,146.3c0-3.3-2.7-6-6-6H283.4c-3.3,0-6,2.7-6,6s2.7,6,6,6h116.6C403.4,152.3,406.1,149.6,406.1,146.3z
				"/>
		</g>
	</g>
</switch>
</svg>
